<?xml version="1.0" encoding="UTF-8" standalone="no"?>
<!DOCTYPE svg PUBLIC "-//W3C//DTD SVG 1.1//EN"
 "http://www.w3.org/Graphics/SVG/1.1/DTD/svg11.dtd">
<!-- Generated by graphviz version 2.30.1 (20180420.1509)
 -->
<!-- Title: FST Pages: 1 -->
<svg width="532pt" height="52pt"
 viewBox="0.00 0.00 532.00 52.00" xmlns="http://www.w3.org/2000/svg" xmlns:xlink="http://www.w3.org/1999/xlink">
<g id="graph0" class="graph" transform="scale(1 1) rotate(0) translate(4 48)">
<title>FST</title>
<polygon fill="white" stroke="white" points="-4,5 -4,-48 529,-48 529,5 -4,5"/>
<!-- 0 -->
<g id="node1" class="node"><title>0</title>
<ellipse fill="none" stroke="black" stroke-width="2" cx="18" cy="-22" rx="18" ry="18"/>
<text text-anchor="middle" x="18" y="-18.3" font-family="Times,serif" font-size="14.00">0</text>
</g>
<!-- 1 -->
<g id="node2" class="node"><title>1</title>
<ellipse fill="none" stroke="black" cx="122" cy="-22" rx="18" ry="18"/>
<text text-anchor="middle" x="122" y="-18.3" font-family="Times,serif" font-size="14.00">1</text>
</g>
<!-- 0&#45;&gt;1 -->
<g id="edge1" class="edge"><title>0&#45;&gt;1</title>
<path fill="none" stroke="black" d="M36.3029,-22C52.0772,-22 75.6363,-22 93.9059,-22"/>
<polygon fill="black" stroke="black" points="93.9527,-25.5001 103.953,-22 93.9526,-18.5001 93.9527,-25.5001"/>
<text text-anchor="middle" x="70" y="-25.8" font-family="Times,serif" font-size="14.00">DET:1</text>
</g>
<!-- 2 -->
<g id="node3" class="node"><title>2</title>
<ellipse fill="none" stroke="black" cx="210" cy="-22" rx="18" ry="18"/>
<text text-anchor="middle" x="210" y="-18.3" font-family="Times,serif" font-size="14.00">2</text>
</g>
<!-- 1&#45;&gt;2 -->
<g id="edge2" class="edge"><title>1&#45;&gt;2</title>
<path fill="none" stroke="black" d="M140.403,-22C152.254,-22 168.183,-22 181.708,-22"/>
<polygon fill="black" stroke="black" points="181.916,-25.5001 191.916,-22 181.916,-18.5001 181.916,-25.5001"/>
<text text-anchor="middle" x="166" y="-25.8" font-family="Times,serif" font-size="14.00">N:3</text>
</g>
<!-- 3 -->
<g id="node4" class="node"><title>3</title>
<ellipse fill="none" stroke="black" cx="302" cy="-22" rx="18" ry="18"/>
<ellipse fill="none" stroke="black" cx="302" cy="-22" rx="22" ry="22"/>
<text text-anchor="middle" x="302" y="-18.3" font-family="Times,serif" font-size="14.00">3</text>
</g>
<!-- 2&#45;&gt;3 -->
<g id="edge3" class="edge"><title>2&#45;&gt;3</title>
<path fill="none" stroke="black" d="M228.353,-22C240.076,-22 255.886,-22 269.763,-22"/>
<polygon fill="black" stroke="black" points="269.899,-25.5001 279.899,-22 269.899,-18.5001 269.899,-25.5001"/>
<text text-anchor="middle" x="254" y="-25.8" font-family="Times,serif" font-size="14.00">V:2</text>
</g>
<!-- 4 -->
<g id="node5" class="node"><title>4</title>
<ellipse fill="none" stroke="black" cx="410" cy="-22" rx="18" ry="18"/>
<text text-anchor="middle" x="410" y="-18.3" font-family="Times,serif" font-size="14.00">4</text>
</g>
<!-- 3&#45;&gt;4 -->
<g id="edge4" class="edge"><title>3&#45;&gt;4</title>
<path fill="none" stroke="black" d="M324.196,-22C340.684,-22 363.689,-22 381.579,-22"/>
<polygon fill="black" stroke="black" points="381.693,-25.5001 391.693,-22 381.693,-18.5001 381.693,-25.5001"/>
<text text-anchor="middle" x="358" y="-25.8" font-family="Times,serif" font-size="14.00">DET:1</text>
</g>
<!-- 5 -->
<g id="node6" class="node"><title>5</title>
<ellipse fill="none" stroke="black" cx="502" cy="-22" rx="18" ry="18"/>
<ellipse fill="none" stroke="black" cx="502" cy="-22" rx="22" ry="22"/>
<text text-anchor="middle" x="502" y="-18.3" font-family="Times,serif" font-size="14.00">5</text>
</g>
<!-- 4&#45;&gt;5 -->
<g id="edge5" class="edge"><title>4&#45;&gt;5</title>
<path fill="none" stroke="black" d="M428.353,-22C440.076,-22 455.886,-22 469.763,-22"/>
<polygon fill="black" stroke="black" points="469.899,-25.5001 479.899,-22 469.899,-18.5001 469.899,-25.5001"/>
<text text-anchor="middle" x="454" y="-25.8" font-family="Times,serif" font-size="14.00">N:3</text>
</g>
</g>
</svg>
