<?xml version="1.0" encoding="UTF-8" standalone="no"?>
<!DOCTYPE svg PUBLIC "-//W3C//DTD SVG 1.1//EN"
 "http://www.w3.org/Graphics/SVG/1.1/DTD/svg11.dtd">
<!-- Generated by graphviz version 2.30.1 (20180420.1509)
 -->
<!-- Title: FST Pages: 1 -->
<svg width="512pt" height="98pt"
 viewBox="0.00 0.00 512.00 98.00" xmlns="http://www.w3.org/2000/svg" xmlns:xlink="http://www.w3.org/1999/xlink">
<g id="graph0" class="graph" transform="scale(1 1) rotate(0) translate(4 94)">
<title>FST</title>
<polygon fill="white" stroke="white" points="-4,5 -4,-94 509,-94 509,5 -4,5"/>
<!-- 0 -->
<g id="node1" class="node"><title>0</title>
<ellipse fill="none" stroke="black" stroke-width="2" cx="18" cy="-47" rx="18" ry="18"/>
<text text-anchor="middle" x="18" y="-43.3" font-family="Times,serif" font-size="14.00">0</text>
</g>
<!-- 1 -->
<g id="node2" class="node"><title>1</title>
<ellipse fill="none" stroke="black" cx="128" cy="-47" rx="18" ry="18"/>
<text text-anchor="middle" x="128" y="-43.3" font-family="Times,serif" font-size="14.00">1</text>
</g>
<!-- 0&#45;&gt;1 -->
<g id="edge1" class="edge"><title>0&#45;&gt;1</title>
<path fill="none" stroke="black" d="M36.3521,-47C53.4357,-47 79.785,-47 99.6805,-47"/>
<polygon fill="black" stroke="black" points="99.691,-50.5001 109.691,-47 99.691,-43.5001 99.691,-50.5001"/>
<text text-anchor="middle" x="73" y="-50.8" font-family="Times,serif" font-size="14.00">The:3/1</text>
</g>
<!-- 2 -->
<g id="node3" class="node"><title>2</title>
<ellipse fill="none" stroke="black" cx="262" cy="-72" rx="18" ry="18"/>
<text text-anchor="middle" x="262" y="-68.3" font-family="Times,serif" font-size="14.00">2</text>
</g>
<!-- 1&#45;&gt;2 -->
<g id="edge2" class="edge"><title>1&#45;&gt;2</title>
<path fill="none" stroke="black" d="M145.986,-50.2171C168.263,-54.4362 207.606,-61.8875 233.99,-66.8844"/>
<polygon fill="black" stroke="black" points="233.602,-70.3731 244.079,-68.7952 234.905,-63.4954 233.602,-70.3731"/>
<text text-anchor="middle" x="195" y="-68.8" font-family="Times,serif" font-size="14.00">person:1/0.5</text>
</g>
<!-- 3 -->
<g id="node4" class="node"><title>3</title>
<ellipse fill="none" stroke="black" cx="262" cy="-18" rx="18" ry="18"/>
<text text-anchor="middle" x="262" y="-14.3" font-family="Times,serif" font-size="14.00">3</text>
</g>
<!-- 1&#45;&gt;3 -->
<g id="edge3" class="edge"><title>1&#45;&gt;3</title>
<path fill="none" stroke="black" d="M144.703,-39.7921C149.814,-37.6712 155.571,-35.5158 161,-34 185.115,-27.2669 213.345,-23.0736 233.65,-20.678"/>
<polygon fill="black" stroke="black" points="234.207,-24.1378 243.76,-19.5563 233.435,-17.1805 234.207,-24.1378"/>
<text text-anchor="middle" x="195" y="-37.8" font-family="Times,serif" font-size="14.00">people:2/0.5</text>
</g>
<!-- 4 -->
<g id="node5" class="node"><title>4</title>
<ellipse fill="none" stroke="black" cx="366" cy="-47" rx="18" ry="18"/>
<text text-anchor="middle" x="366" y="-43.3" font-family="Times,serif" font-size="14.00">4</text>
</g>
<!-- 2&#45;&gt;4 -->
<g id="edge4" class="edge"><title>2&#45;&gt;4</title>
<path fill="none" stroke="black" d="M279.843,-67.8718C295.715,-63.9815 319.756,-58.0891 338.251,-53.5561"/>
<polygon fill="black" stroke="black" points="339.252,-56.9144 348.132,-51.1344 337.586,-50.1156 339.252,-56.9144"/>
<text text-anchor="middle" x="314" y="-66.8" font-family="Times,serif" font-size="14.00">is:6/1</text>
</g>
<!-- 3&#45;&gt;4 -->
<g id="edge5" class="edge"><title>3&#45;&gt;4</title>
<path fill="none" stroke="black" d="M279.792,-21.9213C294.037,-25.3422 314.971,-30.5926 333,-36 335.022,-36.6065 337.107,-37.2595 339.198,-37.934"/>
<polygon fill="black" stroke="black" points="338.208,-41.2935 348.802,-41.1525 340.432,-34.6563 338.208,-41.2935"/>
<text text-anchor="middle" x="314" y="-39.8" font-family="Times,serif" font-size="14.00">are:4/1</text>
</g>
<!-- 5 -->
<g id="node6" class="node"><title>5</title>
<ellipse fill="none" stroke="black" cx="482" cy="-47" rx="18" ry="18"/>
<ellipse fill="none" stroke="black" cx="482" cy="-47" rx="22" ry="22"/>
<text text-anchor="middle" x="482" y="-43.3" font-family="Times,serif" font-size="14.00">5</text>
</g>
<!-- 4&#45;&gt;5 -->
<g id="edge6" class="edge"><title>4&#45;&gt;5</title>
<path fill="none" stroke="black" d="M384.314,-47C401.578,-47 428.486,-47 449.536,-47"/>
<polygon fill="black" stroke="black" points="449.629,-50.5001 459.629,-47 449.629,-43.5001 449.629,-50.5001"/>
<text text-anchor="middle" x="422" y="-50.8" font-family="Times,serif" font-size="14.00">mad:5/1</text>
</g>
</g>
</svg>
