<?xml version="1.0" encoding="UTF-8" standalone="no"?>
<!DOCTYPE svg PUBLIC "-//W3C//DTD SVG 1.1//EN"
 "http://www.w3.org/Graphics/SVG/1.1/DTD/svg11.dtd">
<!-- Generated by graphviz version 2.30.1 (20180420.1509)
 -->
<!-- Title: FST Pages: 1 -->
<svg width="612pt" height="69pt"
 viewBox="0.00 0.00 612.00 69.49" xmlns="http://www.w3.org/2000/svg" xmlns:xlink="http://www.w3.org/1999/xlink">
<g id="graph0" class="graph" transform="scale(0.924471 0.924471) rotate(0) translate(4 71.1678)">
<title>FST</title>
<polygon fill="white" stroke="white" points="-4,5 -4,-71.1678 659,-71.1678 659,5 -4,5"/>
<!-- 0 -->
<g id="node1" class="node"><title>0</title>
<ellipse fill="none" stroke="black" stroke-width="2" cx="18" cy="-31.1678" rx="18" ry="18"/>
<text text-anchor="middle" x="18" y="-27.4678" font-family="Times,serif" font-size="14.00">0</text>
</g>
<!-- 1 -->
<g id="node2" class="node"><title>1</title>
<ellipse fill="none" stroke="black" cx="152" cy="-31.1678" rx="18" ry="18"/>
<text text-anchor="middle" x="152" y="-27.4678" font-family="Times,serif" font-size="14.00">1</text>
</g>
<!-- 0&#45;&gt;1 -->
<g id="edge1" class="edge"><title>0&#45;&gt;1</title>
<path fill="none" stroke="black" d="M33.752,-40.3307C38.9978,-43.0968 45.0758,-45.7693 51,-47.1678 80.4137,-54.1115 89.5863,-54.1115 119,-47.1678 121.684,-46.5341 124.4,-45.6388 127.056,-44.5918"/>
<polygon fill="black" stroke="black" points="128.648,-47.712 136.248,-40.3307 125.703,-41.3612 128.648,-47.712"/>
<text text-anchor="middle" x="85" y="-55.9678" font-family="Times,serif" font-size="14.00">DET:cat</text>
</g>
<!-- 0&#45;&gt;1 -->
<g id="edge2" class="edge"><title>0&#45;&gt;1</title>
<path fill="none" stroke="black" d="M35.9187,-29.284C40.781,-28.8234 46.095,-28.3972 51,-28.1678 81.1892,-26.7558 88.8108,-26.7558 119,-28.1678 120.533,-28.2395 122.106,-28.3304 123.692,-28.4356"/>
<polygon fill="black" stroke="black" points="123.83,-31.9584 134.081,-29.284 124.399,-24.9816 123.83,-31.9584"/>
<text text-anchor="middle" x="85" y="-31.9678" font-family="Times,serif" font-size="14.00">DET:dog</text>
</g>
<!-- 0&#45;&gt;1 -->
<g id="edge3" class="edge"><title>0&#45;&gt;1</title>
<path fill="none" stroke="black" d="M31.2815,-19.0104C36.8258,-14.3543 43.7531,-9.58346 51,-7.16783 79.6713,2.38928 90.3287,2.38928 119,-7.16783 122.963,-8.48888 126.831,-10.5143 130.429,-12.8401"/>
<polygon fill="black" stroke="black" points="128.607,-15.8472 138.719,-19.0104 132.786,-10.2319 128.607,-15.8472"/>
<text text-anchor="middle" x="85" y="-10.9678" font-family="Times,serif" font-size="14.00">DET:mouse</text>
</g>
<!-- 2 -->
<g id="node3" class="node"><title>2</title>
<ellipse fill="none" stroke="black" cx="270" cy="-31.1678" rx="18" ry="18"/>
<text text-anchor="middle" x="270" y="-27.4678" font-family="Times,serif" font-size="14.00">2</text>
</g>
<!-- 1&#45;&gt;2 -->
<g id="edge4" class="edge"><title>1&#45;&gt;2</title>
<path fill="none" stroke="black" d="M170.116,-31.1678C188.964,-31.1678 219.531,-31.1678 241.696,-31.1678"/>
<polygon fill="black" stroke="black" points="241.814,-34.6679 251.814,-31.1678 241.814,-27.6679 241.814,-34.6679"/>
<text text-anchor="middle" x="211" y="-34.9678" font-family="Times,serif" font-size="14.00">N:chased</text>
</g>
<!-- 1&#45;&gt;2 -->
<g id="edge5" class="edge"><title>1&#45;&gt;2</title>
<path fill="none" stroke="black" d="M166.909,-20.707C172.274,-17.283 178.645,-13.9124 185,-12.1678 207.287,-6.05003 214.713,-6.05003 237,-12.1678 240.078,-13.0128 243.16,-14.2394 246.13,-15.6687"/>
<polygon fill="black" stroke="black" points="244.659,-18.8571 255.091,-20.707 248.09,-12.7553 244.659,-18.8571"/>
<text text-anchor="middle" x="211" y="-15.9678" font-family="Times,serif" font-size="14.00">N:bit</text>
</g>
<!-- 3 -->
<g id="node4" class="node"><title>3</title>
<ellipse fill="none" stroke="black" cx="372" cy="-31.1678" rx="18" ry="18"/>
<ellipse fill="none" stroke="black" cx="372" cy="-31.1678" rx="22" ry="22"/>
<text text-anchor="middle" x="372" y="-27.4678" font-family="Times,serif" font-size="14.00">3</text>
</g>
<!-- 2&#45;&gt;3 -->
<g id="edge6" class="edge"><title>2&#45;&gt;3</title>
<path fill="none" stroke="black" d="M288.419,-31.1678C302.599,-31.1678 322.972,-31.1678 339.934,-31.1678"/>
<polygon fill="black" stroke="black" points="339.968,-34.6679 349.968,-31.1678 339.968,-27.6679 339.968,-34.6679"/>
<text text-anchor="middle" x="319" y="-34.9678" font-family="Times,serif" font-size="14.00">V:the</text>
</g>
<!-- 2&#45;&gt;3 -->
<g id="edge7" class="edge"><title>2&#45;&gt;3</title>
<path fill="none" stroke="black" d="M284.909,-20.707C290.274,-17.283 296.645,-13.9124 303,-12.1678 316.715,-8.40303 321.195,-8.74835 335,-12.1678 337.99,-12.9086 341.006,-13.948 343.952,-15.1629"/>
<polygon fill="black" stroke="black" points="342.476,-18.3363 353.008,-19.4906 345.494,-12.0206 342.476,-18.3363"/>
<text text-anchor="middle" x="319" y="-15.9678" font-family="Times,serif" font-size="14.00">V:a</text>
</g>
<!-- 4 -->
<g id="node5" class="node"><title>4</title>
<ellipse fill="none" stroke="black" cx="510" cy="-31.1678" rx="18" ry="18"/>
<text text-anchor="middle" x="510" y="-27.4678" font-family="Times,serif" font-size="14.00">4</text>
</g>
<!-- 3&#45;&gt;4 -->
<g id="edge8" class="edge"><title>3&#45;&gt;4</title>
<path fill="none" stroke="black" d="M391.929,-41.3487C397.295,-43.7405 403.246,-45.9468 409,-47.1678 438.564,-53.4417 447.586,-54.1115 477,-47.1678 479.684,-46.5341 482.4,-45.6388 485.056,-44.5918"/>
<polygon fill="black" stroke="black" points="486.648,-47.712 494.248,-40.3307 483.703,-41.3612 486.648,-47.712"/>
<text text-anchor="middle" x="443" y="-54.9678" font-family="Times,serif" font-size="14.00">DET:cat</text>
</g>
<!-- 3&#45;&gt;4 -->
<g id="edge9" class="edge"><title>3&#45;&gt;4</title>
<path fill="none" stroke="black" d="M393.921,-29.1285C398.861,-28.729 404.112,-28.3711 409,-28.1678 439.196,-26.9118 446.811,-26.7558 477,-28.1678 478.533,-28.2395 480.106,-28.3304 481.692,-28.4356"/>
<polygon fill="black" stroke="black" points="481.83,-31.9584 492.081,-29.284 482.399,-24.9816 481.83,-31.9584"/>
<text text-anchor="middle" x="443" y="-31.9678" font-family="Times,serif" font-size="14.00">DET:dog</text>
</g>
<!-- 3&#45;&gt;4 -->
<g id="edge10" class="edge"><title>3&#45;&gt;4</title>
<path fill="none" stroke="black" d="M389.521,-17.2104C395.31,-13.1549 402.098,-9.25749 409,-7.16783 437.925,1.59009 448.329,2.38928 477,-7.16783 480.963,-8.48888 484.831,-10.5143 488.429,-12.8401"/>
<polygon fill="black" stroke="black" points="486.607,-15.8472 496.719,-19.0104 490.786,-10.2319 486.607,-15.8472"/>
<text text-anchor="middle" x="443" y="-10.9678" font-family="Times,serif" font-size="14.00">DET:mouse</text>
</g>
<!-- 5 -->
<g id="node6" class="node"><title>5</title>
<ellipse fill="none" stroke="black" cx="632" cy="-31.1678" rx="18" ry="18"/>
<ellipse fill="none" stroke="black" cx="632" cy="-31.1678" rx="22" ry="22"/>
<text text-anchor="middle" x="632" y="-27.4678" font-family="Times,serif" font-size="14.00">5</text>
</g>
<!-- 4&#45;&gt;5 -->
<g id="edge11" class="edge"><title>4&#45;&gt;5</title>
<path fill="none" stroke="black" d="M528.193,-31.1678C546.767,-31.1678 576.762,-31.1678 599.57,-31.1678"/>
<polygon fill="black" stroke="black" points="599.793,-34.6679 609.792,-31.1678 599.792,-27.6679 599.793,-34.6679"/>
<text text-anchor="middle" x="569" y="-34.9678" font-family="Times,serif" font-size="14.00">N:chased</text>
</g>
<!-- 4&#45;&gt;5 -->
<g id="edge12" class="edge"><title>4&#45;&gt;5</title>
<path fill="none" stroke="black" d="M524.909,-20.707C530.274,-17.283 536.645,-13.9124 543,-12.1678 565.287,-6.05003 572.567,-6.61117 595,-12.1678 597.99,-12.9086 601.006,-13.948 603.952,-15.1629"/>
<polygon fill="black" stroke="black" points="602.476,-18.3363 613.008,-19.4906 605.494,-12.0206 602.476,-18.3363"/>
<text text-anchor="middle" x="569" y="-15.9678" font-family="Times,serif" font-size="14.00">N:bit</text>
</g>
</g>
</svg>
